<svg viewBox="0 0 320 180" fill="none" xmlns="http://www.w3.org/2000/svg">
  <defs>
    <linearGradient id="sun" x1="160" y1="72" x2="160" y2="20" gradientUnits="userSpaceOnUse">
      <stop stop-color="#f97316"/>
      <stop offset="1" stop-color="#facc15"/>
    </linearGradient>
    <linearGradient id="signal" x1="88" y1="88" x2="232" y2="88" gradientUnits="userSpaceOnUse">
      <stop stop-color="#7c3aed"/>
      <stop offset="1" stop-color="#ec4899"/>
    </linearGradient>
    <linearGradient id="signal-text" x1="0" y1="0" x2="1" y2="0">
      <stop stop-color="#7c3aed"/>
      <stop offset="1" stop-color="#ec4899"/>
    </linearGradient>
  </defs>

  <path d="M160 24V32M144 30.4L149.6 36.8M176 30.4L170.4 36.8M132 52H140M180 52H188" stroke="url(#sun)" stroke-width="5" stroke-linecap="round"/>
  <path d="M124 84C124 66.33 140.12 52 160 52C179.88 52 196 66.33 196 84H124Z" fill="url(#sun)"/>
  <path d="M88 84H118C128 84 132 96 144 96C156 96 160 56 176 56C192 56 196 84 208 84H232" stroke="url(#signal)" stroke-width="10" stroke-linecap="round" stroke-linejoin="round"/>

  <text x="160" y="126" text-anchor="middle" font-family="system-ui, -apple-system, BlinkMacSystemFont, sans-serif" font-size="30" font-weight="700">
    <tspan fill="#18181b">Morning </tspan>
    <tspan fill="url(#signal-text)">Signal</tspan>
  </text>

  <line x1="72" y1="148" x2="108" y2="148" stroke="#e4e4e7" stroke-width="1.5"/>
  <text x="160" y="153" text-anchor="middle" font-family="system-ui, -apple-system, BlinkMacSystemFont, sans-serif" font-size="9" font-weight="500" letter-spacing="0.2em" fill="#71717a">YOUR DAILY ADVANTAGE</text>
  <line x1="212" y1="148" x2="248" y2="148" stroke="#e4e4e7" stroke-width="1.5"/>
</svg>
